<?xml version="1.0" encoding="utf-8"?>
<!-- Generator: Adobe Illustrator 22.1.0, SVG Export Plug-In . SVG Version: 6.00 Build 0)  -->
<svg version="1.1" id="Layer_1" xmlns="http://www.w3.org/2000/svg" xmlns:xlink="http://www.w3.org/1999/xlink" x="0px" y="0px"
	 viewBox="0 0 560 288" style="enable-background:new 0 0 560 288;" xml:space="preserve">
<style type="text/css">
	.st0{fill:#E6E7E8;}
	.st1{fill:#BA42CD;}
</style>
<image style="overflow:visible;enable-background:new    ;" width="155" height="154" xlink:href="FEDDE6C1.png"  transform="matrix(1 0 0 1 227 67)">
</image>
<path class="st0" d="M346.3,118.7v50.7c0,3.8-2.7,6.8-6.2,6.8h-71.3c-3.4,0-6.2-3-6.2-6.8v-50.7c0-3.8,2.7-6.8,6.2-6.8h71.3
	C343.5,112,346.3,115,346.3,118.7z"/>
<ellipse class="st1" cx="304.5" cy="144" rx="11" ry="10.9"/>
<circle class="st1" cx="322" cy="130.6" r="4.7"/>
<path class="st0" d="M326.5,110v1.4c0,2.2-3.5,3.9-7.7,3.9h-28.5c-4.3,0-7.7-1.8-7.7-3.9V110c0-2.2,3.5-3.9,7.7-3.9h28.5
	C323,106.1,326.5,107.8,326.5,110z"/>
</svg>
