<?xml version="1.0" encoding="utf-8"?>
<!-- Generator: Adobe Illustrator 22.1.0, SVG Export Plug-In . SVG Version: 6.00 Build 0)  -->
<svg version="1.1" id="Layer_1" xmlns="http://www.w3.org/2000/svg" xmlns:xlink="http://www.w3.org/1999/xlink" x="0px" y="0px"
	 viewBox="0 0 560 288" style="enable-background:new 0 0 560 288;" xml:space="preserve">
<style type="text/css">
	.st0{fill:#E6E7E8;}
</style>
<image style="overflow:visible;enable-background:new    ;" width="155" height="154" xlink:href="6BA187C7.png"  transform="matrix(1 0 0 1 198 69)">
</image>
<path class="st0" d="M330.5,116.7L330.5,116.7c0,3.1-4.9,5.5-11,5.5h-86.9c-6.1,0-11-2.4-11-5.5l0,0c0-3.1,4.9-5.5,11-5.5h86.9
	C325.5,111.2,330.5,113.6,330.5,116.7z"/>
<path class="st0" d="M330.5,179.3L330.5,179.3c0,3.1-4.9,5.5-11,5.5h-86.9c-6.1,0-11-2.4-11-5.5l0,0c0-3.1,4.9-5.5,11-5.5h86.9
	C325.5,173.9,330.5,176.3,330.5,179.3z"/>
<path class="st0" d="M337.5,148L337.5,148c0,3.1-4.3,5.5-9.6,5.5H224.1c-5.3,0-9.6-2.4-9.6-5.5l0,0c0-3.1,4.3-5.5,9.6-5.5H328
	C333.2,142.5,337.5,144.9,337.5,148z"/>
</svg>
