<?xml version="1.0" encoding="utf-8"?>
<!-- Generator: Adobe Illustrator 22.1.0, SVG Export Plug-In . SVG Version: 6.00 Build 0)  -->
<svg version="1.1" id="Layer_1" xmlns="http://www.w3.org/2000/svg" xmlns:xlink="http://www.w3.org/1999/xlink" x="0px" y="0px"
	 viewBox="0 0 560 288" style="enable-background:new 0 0 560 288;" xml:space="preserve">
<style type="text/css">
	.st0{fill:#DCD0E8;}
	.st1{fill:#BE15B3;enable-background:new    ;}
</style>
<image style="overflow:visible;enable-background:new    ;" width="155" height="154" xlink:href="4B5C6CF2.png"  transform="matrix(1 0 0 1 202.5 69)">
</image>
<circle class="st0" cx="280" cy="146" r="28.9"/>
<circle class="st1" cx="280" cy="146" r="14.6"/>
<path class="st0" d="M251.5,152.3H237c-2.5,0-4.5-2-4.5-4.5v-3.6c0-2.5,2-4.5,4.5-4.5h14.4c2.5,0,4.5,2,4.5,4.5v3.6
	C256,150.3,254,152.3,251.5,152.3z"/>
<path class="st0" d="M324.5,152.3h-17.9c-2.5,0-4.5-2-4.5-4.5v-3.6c0-2.5,2-4.5,4.5-4.5h17.9c2.5,0,4.5,2,4.5,4.5v3.6
	C329,150.3,327,152.3,324.5,152.3z"/>
<path class="st0" d="M286.3,173.8v14.7c0,2.5-2,4.5-4.5,4.5h-3.6c-2.5,0-4.5-2-4.5-4.5v-14.7c0-2.5,2-4.5,4.5-4.5h3.6
	C284.3,169.2,286.3,171.2,286.3,173.8z"/>
<path class="st0" d="M286.3,102.5v15.7c0,2.5-2,4.5-4.5,4.5h-3.6c-2.5,0-4.5-2-4.5-4.5v-15.7c0-2.5,2-4.5,4.5-4.5h3.6
	C284.3,98,286.3,100,286.3,102.5z"/>
<path class="st0" d="M306,163l10.6,10.6c1.8,1.8,1.8,4.6,0,6.4l-2.5,2.5c-1.8,1.8-4.6,1.8-6.4,0L297,172c-1.8-1.8-1.8-4.6,0-6.4
	l2.5-2.5C301.3,161.2,304.2,161.2,306,163z"/>
<path class="st0" d="M253.9,111l9.1,9.1c1.8,1.8,1.8,4.6,0,6.4l-2.5,2.5c-1.8,1.8-4.6,1.8-6.4,0l-9.1-9.1c-1.8-1.8-1.8-4.6,0-6.4
	l2.5-2.5C249.3,109.2,252.2,109.2,253.9,111z"/>
<path class="st0" d="M243.9,173.2L254,163c1.8-1.8,4.6-1.8,6.4,0l2.5,2.5c1.8,1.8,1.8,4.6,0,6.4l-10.2,10.2c-1.8,1.8-4.6,1.8-6.4,0
	l-2.5-2.5C242.1,177.9,242.1,175,243.9,173.2z"/>
<path class="st0" d="M297,120l10.8-10.8c1.8-1.8,4.6-1.8,6.4,0l2.5,2.5c1.8,1.8,1.8,4.6,0,6.4L306,129c-1.8,1.8-4.6,1.8-6.4,0
	l-2.5-2.5C295.3,124.7,295.3,121.8,297,120z"/>
</svg>
